REM MD5 58534fe9c039ba2d56c461dd673113b1
FILE "Broken Sword II - La Profezia dei Maya (Italy).bin" BINARY
  TRACK 01 MODE2/2352
    INDEX 01 00:00:00
  TRACK 02 AUDIO
    INDEX 00 57:37:70
    INDEX 01 57:39:70
  TRACK 03 AUDIO
    INDEX 00 60:18:00
    INDEX 01 60:20:00
REM LEADOUT 63:37:31
